<svg xmlns="http://www.w3.org/2000/svg" xmlns:xlink="http://www.w3.org/1999/xlink" width="50" height="45.585" viewBox="0 0 203.854 185.856">
  <defs>
    <linearGradient id="linear-gradient" x1="0.198" y1="0.036" x2="0.927" y2="1" gradientUnits="objectBoundingBox">
      <stop offset="0" stop-color="#2d6cff"/>
      <stop offset="1" stop-color="#1632c1"/>
    </linearGradient>
    <linearGradient id="linear-gradient-2" x1="0.865" y1="0.014" x2="0.126" y2="0.966" xlink:href="#linear-gradient"/>
    <linearGradient id="linear-gradient-3" x1="0.5" y1="0" x2="0.5" y2="1" xlink:href="#linear-gradient"/>
  </defs>
  <g id="Icon_colored" data-name="Icon colored" transform="translate(-135.472 -1314.207)">
    <path id="Differenzmenge_3" data-name="Differenzmenge 3" d="M-10939.675,5101.656l-32.905-56.992a37,37,0,0,1-8.586,1.006,36.592,36.592,0,0,1-14.336-2.895,36.7,36.7,0,0,1-11.71-7.894,36.716,36.716,0,0,1-7.895-11.708,36.6,36.6,0,0,1-2.895-14.338,36.6,36.6,0,0,1,2.895-14.338,36.727,36.727,0,0,1,7.895-11.708,36.709,36.709,0,0,1,11.71-7.895,36.6,36.6,0,0,1,14.336-2.895,36.613,36.613,0,0,1,14.339,2.895,36.736,36.736,0,0,1,11.71,7.895,36.713,36.713,0,0,1,7.894,11.708,36.6,36.6,0,0,1,2.895,14.338,36.594,36.594,0,0,1-2.9,14.344,36.718,36.718,0,0,1-7.9,11.712l32.772,56.763-17.319,10h0ZM-10981.163,4992a16.853,16.853,0,0,0-16.835,16.834,16.853,16.853,0,0,0,16.835,16.834,16.853,16.853,0,0,0,16.834-16.834A16.853,16.853,0,0,0-10981.163,4992Z" transform="translate(11153.474 -3657.607)" fill="url(#linear-gradient)"/>
    <path id="Differenzmenge_4" data-name="Differenzmenge 4" d="M-11000.679,5101.84h0l-17.322-10,33.154-57.424a36.633,36.633,0,0,1-7.062-10.387,36.729,36.729,0,0,1-3.177-12.625,36.6,36.6,0,0,1,1.888-14.5,36.727,36.727,0,0,1,7.059-12.23,36.71,36.71,0,0,1,11.129-8.692,36.62,36.62,0,0,1,14.1-3.889c.866-.061,1.743-.091,2.606-.091a36.686,36.686,0,0,1,25.036,9.852,36.7,36.7,0,0,1,11.672,24.417,36.6,36.6,0,0,1-1.888,14.5,36.707,36.707,0,0,1-7.058,12.23,36.687,36.687,0,0,1-11.129,8.692,36.6,36.6,0,0,1-14.1,3.888c-.86.06-1.736.091-2.6.091a36.786,36.786,0,0,1-9.2-1.167l-33.1,57.333Zm42.158-109.656a16.854,16.854,0,0,0-16.837,16.834,16.856,16.856,0,0,0,16.837,16.837,16.855,16.855,0,0,0,16.834-16.837A16.853,16.853,0,0,0-10958.521,4992.184Z" transform="translate(11260.831 -3657.791)" fill="url(#linear-gradient-2)"/>
    <path id="Differenzmenge_5" data-name="Differenzmenge 5" d="M-10981.166,5045.67a36.6,36.6,0,0,1-14.338-2.895,36.719,36.719,0,0,1-11.709-7.894,36.713,36.713,0,0,1-7.894-11.708,36.6,36.6,0,0,1-2.895-14.338,36.6,36.6,0,0,1,2.895-14.338,36.713,36.713,0,0,1,7.894-11.708,36.723,36.723,0,0,1,11.709-7.895,36.6,36.6,0,0,1,14.338-2.895,36.613,36.613,0,0,1,14.339,2.895,36.736,36.736,0,0,1,11.71,7.895,36.713,36.713,0,0,1,7.894,11.708,36.6,36.6,0,0,1,2.895,14.338,36.6,36.6,0,0,1-2.895,14.338,36.713,36.713,0,0,1-7.894,11.708,36.724,36.724,0,0,1-11.71,7.894A36.613,36.613,0,0,1-10981.166,5045.67Zm0-53.669a16.853,16.853,0,0,0-16.835,16.834,16.853,16.853,0,0,0,16.835,16.834,16.854,16.854,0,0,0,16.837-16.834A16.854,16.854,0,0,0-10981.166,4992Z" transform="translate(11217.475 -3545.607)" fill="url(#linear-gradient-3)"/>
  </g>
</svg>
